<svg xmlns="http://www.w3.org/2000/svg" viewBox="0 0 260.76 230"><defs><style>.cls-1,.cls-2,.cls-4,.cls-7{fill:none;}.cls-1,.cls-2,.cls-3{stroke:#f8f8f8;}.cls-1,.cls-2,.cls-3,.cls-4,.cls-7{stroke-miterlimit:10;}.cls-1,.cls-2,.cls-3,.cls-4{stroke-width:0.25px;}.cls-2,.cls-3{opacity:0.21;}.cls-3{fill:#d5e1d4;}.cls-4{stroke:#fe8361;}.cls-5{fill:#efc7bd;}.cls-6{fill:#c9ddc7;}.cls-7{stroke:#a7bfa5;stroke-width:0.5px;}</style></defs><g id="Layer_2" data-name="Layer 2"><g id="Layer_1-2" data-name="Layer 1"><path class="cls-1" d="M165.9,186.68l-4.71-2.85a3.05,3.05,0,0,0-3.19,0l-3,1.79a3.07,3.07,0,0,1-3.4-.13l-2-1.46a3.09,3.09,0,0,0-3.34-.18l-3.2,1.85a3.09,3.09,0,0,1-3.32-.15L136,182.86"/><circle class="cls-2" cx="38.88" cy="100.6" r="10.65"/><rect class="cls-2" x="208.55" y="80.72" width="18.45" height="18.45"/><rect class="cls-3" x="20.11" y="194.52" width="11.32" height="11.32"/><polyline class="cls-4" points="44.84 187.45 42.33 185.92 39.82 187.45 37.72 185.92 35.07 187.45 32.92 185.92"/><circle class="cls-2" cx="111.95" cy="42.09" r="7.53"/><circle class="cls-5" cx="146" cy="69.22" r="0.73"/><circle class="cls-6" cx="74.13" cy="170.48" r="0.73"/><circle class="cls-6" cx="222.2" cy="194.52" r="0.73"/><circle class="cls-5" cx="84.45" cy="0.73" r="0.73"/><circle class="cls-6" cx="12.58" cy="102" r="0.73"/><circle class="cls-6" cx="160.65" cy="126.04" r="0.73"/><path class="cls-7" d="M260.61,117.56,258.72,116a1,1,0,0,0-1.25,0l-1.2,1a1,1,0,0,1-1.33-.07l-.83-.79a1,1,0,0,0-1.31-.09l-1.3,1a1,1,0,0,1-1.3-.08l-1.52-1.42"/><circle class="cls-5" cx="76.58" cy="92.73" r="0.73"/><circle class="cls-6" cx="167.74" cy="177.05" r="0.73"/><circle class="cls-6" cx="210.66" cy="33.31" r="0.73"/><circle class="cls-5" cx="0.73" cy="144.95" r="0.73"/><circle class="cls-6" cx="91.89" cy="229.27" r="0.73"/><circle class="cls-6" cx="134.81" cy="85.53" r="0.73"/></g></g></svg>