<svg xmlns="http://www.w3.org/2000/svg" viewBox="0 0 104.32 90.88"><defs><style>.cls-1,.cls-2{fill:none;stroke-miterlimit:10;stroke-width:0.25px;}.cls-1{stroke:#fe8361;}.cls-2{stroke:#a7bfa5;}</style></defs><g id="Layer_2" data-name="Layer 2"><g id="Layer_1-2" data-name="Layer 1"><polygon class="cls-1" points="20.09 77.56 14.09 70.96 2.69 73.21 8.84 79.96 20.09 77.56"/><polygon class="cls-1" points="17.16 88.81 20.09 77.56 8.84 79.96 6.59 90.63 17.16 88.81"/><polygon class="cls-1" points="2.69 73.21 0.14 84.09 6.59 90.63 8.84 79.96 2.69 73.21"/><polygon class="cls-2" points="100.73 6.74 94.73 0.14 83.33 2.39 89.48 9.14 100.73 6.74"/><polygon class="cls-2" points="97.81 17.99 100.73 6.74 89.48 9.14 87.23 19.8 97.81 17.99"/><polygon class="cls-2" points="83.33 2.39 80.78 13.27 87.23 19.8 89.48 9.14 83.33 2.39"/><polygon class="cls-2" points="87.02 19.87 81.02 13.27 69.62 15.52 75.77 22.27 87.02 19.87"/><polygon class="cls-2" points="84.09 31.12 87.02 19.87 75.77 22.27 73.52 32.94 84.09 31.12"/><polygon class="cls-2" points="69.62 15.52 67.07 26.41 73.52 32.94 75.77 22.27 69.62 15.52"/><polygon class="cls-2" points="104.08 24.37 98.08 17.77 86.68 20.02 92.83 26.77 104.08 24.37"/><polygon class="cls-2" points="101.16 35.62 104.08 24.37 92.83 26.77 90.58 37.44 101.16 35.62"/><polygon class="cls-2" points="86.68 20.02 84.13 30.91 90.58 37.44 92.83 26.77 86.68 20.02"/></g></g></svg>