<svg xmlns="http://www.w3.org/2000/svg" viewBox="0 0 85.64 73.29"><defs><style>.cls-1{fill:#f9f9f9;}.cls-2{fill:none;stroke:#f9f9f9;stroke-miterlimit:10;stroke-width:2px;}</style></defs><g id="Layer_2" data-name="Layer 2"><g id="Layer_1-2" data-name="Layer 1"><path class="cls-1" d="M2.27,53.09l4.25-3c2.13,3.76,4.8,5.29,8.18,5.29,5.05,0,7.55-2.86,7.55-10V12.5h6V45.85c0,8.18-3.77,14.77-13,14.77C9.25,60.62,5,58,2.27,53.09Z" transform="translate(-2.27 -5.66)"/><path class="cls-1" d="M41,12.5h7.24l9.06,25.25c1.14,3.23,2.22,6.57,3.36,9.85H61c1.13-3.28,2.13-6.62,3.26-9.85l9-25.25h7.24V59.76H74.84v-26c0-4.12.46-9.8.76-14h-.28L71.56,30.54,62.66,55h-4l-9-24.45L46,19.76H45.7c.3,4.18.76,9.86.76,14v26H41Z" transform="translate(-2.27 -5.66)"/><path class="cls-1" d="M7.83,62.91h2.41l3,8.41c.38,1.08.74,2.19,1.12,3.29h.1c.38-1.1.71-2.21,1.09-3.29l3-8.41H21V78.66H19.1V70c0-1.38.16-3.27.26-4.66h-.1L18,68.92l-3,8.15H13.71l-3-8.15L9.49,65.33h-.1c.1,1.39.25,3.28.25,4.66v8.67H7.83Z" transform="translate(-2.27 -5.66)"/><path class="cls-1" d="M24.36,70.73c0-5,2.78-8.11,6.73-8.11s6.74,3.07,6.74,8.11S35.05,79,31.09,79,24.36,75.77,24.36,70.73Zm11.4,0c0-3.93-1.85-6.35-4.67-6.35s-4.66,2.42-4.66,6.35,1.85,6.46,4.66,6.46S35.76,74.65,35.76,70.73Z" transform="translate(-2.27 -5.66)"/><path class="cls-1" d="M40.07,76.61l1.2-1.38a6.14,6.14,0,0,0,4.35,2c2.06,0,3.29-1,3.29-2.56s-1.14-2.13-2.63-2.78l-2.26-1c-1.47-.63-3.19-1.74-3.19-4.06s2.09-4.18,5-4.18a6.54,6.54,0,0,1,4.64,1.95l-1.07,1.29a5,5,0,0,0-3.57-1.48c-1.77,0-2.94.89-2.94,2.3s1.37,2.09,2.61,2.61l2.24,1C49.53,71,51,72.13,51,74.47S48.89,79,45.58,79A7.55,7.55,0,0,1,40.07,76.61Z" transform="translate(-2.27 -5.66)"/><path class="cls-1" d="M57.27,62.91h2.26l5.33,15.75H62.73L60,69.86c-.57-1.76-1.07-3.49-1.58-5.31h-.1c-.48,1.83-1,3.55-1.55,5.31L54,78.66h-2Zm-2.53,9.35H62v1.6H54.74Z" transform="translate(-2.27 -5.66)"/><path class="cls-1" d="M66.84,62.91h4.68c3.2,0,5.42,1.09,5.42,3.86a3.46,3.46,0,0,1-2.3,3.42v.09a3.64,3.64,0,0,1,3.2,3.77c0,3.1-2.45,4.61-6,4.61h-5Zm4.34,6.7c2.68,0,3.79-1,3.79-2.59,0-1.83-1.26-2.52-3.7-2.52H68.85v5.11Zm.41,7.46c2.7,0,4.28-1,4.28-3.09,0-1.94-1.52-2.83-4.28-2.83H68.85v5.92Z" transform="translate(-2.27 -5.66)"/><polyline class="cls-2" points="77.21 68.05 84.64 68.05 84.64 1 8.59 1 8.59 46.75"/></g></g></svg>