<svg xmlns="http://www.w3.org/2000/svg" viewBox="0 0 113.9 113.9"><defs><style>.cls-1{fill:#f9f9f9;}.cls-2,.cls-3{fill:none;stroke:#f9f9f9;stroke-miterlimit:10;}.cls-2{stroke-width:7px;}.cls-3{stroke-width:5px;}</style></defs><g id="Layer_2" data-name="Layer 2"><g id="Layer_1-2" data-name="Layer 1"><path class="cls-1" d="M24.88,36.85H40.67c9.35.32,14.72,2.25,14.78,9.79,0,4-2.17,7.52-5.79,8.52v.25c4.49,1,8.17,4,8,9.29-.32,8.23-5,11.63-14.26,11.63H24.88ZM38.77,52.66c4.83,0,9.13.34,9.48-4.46.37-5.22-4.77-4.46-9.41-4.46h-6v8.92Zm.9,17.11C48,70,50,68.85,49.55,64c-.33-3.59-2.64-5-9.88-4.73H32.81V69.77Z"/><path class="cls-1" d="M62.18,62.18c0-9.66,6.61-15.43,13.74-15,8.61.59,12.26,5.44,13,13.62a12.12,12.12,0,0,1,0,3.41H70.09c.14,4.21,1.86,7,5.83,7,0,0,4.07.64,5-3.94l7.51,1.33c-1.76,4.9-5.38,8.14-12,8.37C67.94,77.34,62.18,72,62.18,62.18Zm19.19-2.49c0-3.84-1.93-6.66-5.45-6.66-2.79,0-5.69,2.13-5.69,6.66Z"/><line class="cls-2" x1="84.06" y1="40.93" x2="67.78" y2="40.93"/><circle class="cls-3" cx="56.95" cy="56.95" r="54.45"/></g></g></svg>