<svg xmlns="http://www.w3.org/2000/svg" viewBox="0 0 113.9 113.9"><defs><style>.cls-1{fill:#f9f9f9;}.cls-2{fill:none;stroke:#f9f9f9;stroke-miterlimit:10;stroke-width:5px;}</style></defs><g id="Layer_2" data-name="Layer 2"><g id="Layer_1-2" data-name="Layer 1"><path class="cls-1" d="M48.56,49.67A1,1,0,0,1,50,48.75l5.38,2.66V36.85H44.47c-13.26,0-16.66,3.83-16.66,13.53V57H48.56Z"/><path class="cls-1" d="M64.77,57.87l-9.36,4.62V77.05H66.35C79.61,77.05,83,73.22,83,63.52V57H65.34A1,1,0,0,1,64.77,57.87Z"/><path class="cls-1" d="M66.35,36.85H55.41V51.41L64.77,56a1,1,0,0,1,.57.92H83V50.38C83,40.68,79.61,36.85,66.35,36.85Z"/><path class="cls-1" d="M50,65.15a1,1,0,0,1-1.47-.92V57H27.81v6.57c0,9.7,3.4,13.53,16.66,13.53H55.41V62.49Z"/><circle class="cls-2" cx="56.95" cy="56.95" r="54.45"/></g></g></svg>